<svg xmlns="http://www.w3.org/2000/svg" viewBox="0 0 512 256"><defs><style>.cls-1{fill:#202020;}.cls-2{fill:#f7f7f7;}.cls-3{fill:#3b98f4;}</style></defs><title>アセット 3</title><g id="レイヤー_2" data-name="レイヤー 2"><g id="レイヤー_1-2" data-name="レイヤー 1"><rect class="cls-1" width="512" height="256"/><rect class="cls-2" x="130.89" y="53.58" width="17.38" height="139.07"/><rect class="cls-2" x="295.69" y="53.58" width="17.38" height="139.07"/><path class="cls-2" d="M339.14,192.65a43.46,43.46,0,1,1,43.46-43.46A43.51,43.51,0,0,1,339.14,192.65Zm0-69.54a26.08,26.08,0,1,0,26.08,26.08A26.11,26.11,0,0,0,339.14,123.11Z"/><rect class="cls-2" x="249.05" y="105.53" width="17.38" height="87.11"/><path class="cls-2" d="M222.94,192.65a43.46,43.46,0,1,1,43.46-43.46A43.51,43.51,0,0,1,222.94,192.65Zm0-69.54A26.08,26.08,0,1,0,249,149.19,26.11,26.11,0,0,0,222.94,123.11Z"/><path class="cls-3" d="M243.67,149.11a21,21,0,0,1-41.42,4.9,21.07,21.07,0,0,0,19.41-4.78c.5-.46,1-.93,1.43-1.43a21.07,21.07,0,0,1,19.71-4.7A21,21,0,0,1,243.67,149.11Z"/></g></g></svg>