<svg xmlns="http://www.w3.org/2000/svg" viewBox="0 0 256 256"><defs><style>.cls-1{fill:#202020;}.cls-2{fill:#f7f7f7;}.cls-3{fill:#3b98f4;}</style></defs><title>アセット 5</title><g id="レイヤー_2" data-name="レイヤー 2"><g id="レイヤー_1-2" data-name="レイヤー 1"><rect class="cls-1" width="256" height="256"/><rect class="cls-2" x="26" y="53.47" width="17.38" height="139.07"/><rect class="cls-2" x="152.8" y="53.47" width="17.38" height="139.07"/><path class="cls-2" d="M196.26,192.53a43.46,43.46,0,1,1,43.45-43.45A43.5,43.5,0,0,1,196.26,192.53Zm0-69.53a26.08,26.08,0,1,0,26.07,26.08A26.11,26.11,0,0,0,196.26,123Z"/><rect class="cls-2" x="123.35" y="105.42" width="17.38" height="87.11"/><path class="cls-2" d="M97.23,192.53a43.46,43.46,0,1,1,43.46-43.45A43.51,43.51,0,0,1,97.23,192.53Zm0-69.53a26.08,26.08,0,1,0,26.08,26.08A26.11,26.11,0,0,0,97.23,123Z"/><path class="cls-3" d="M117.94,149a21,21,0,0,1-41.42,4.9,21.07,21.07,0,0,0,19.41-4.78c.5-.46,1-.93,1.43-1.43a21.07,21.07,0,0,1,19.71-4.7A21,21,0,0,1,117.94,149Z"/></g></g></svg>